<?xml version="1.0" encoding="UTF-8"?>
<svg xmlns="http://www.w3.org/2000/svg" xmlns:xlink="http://www.w3.org/1999/xlink" width="100px" height="55px" viewBox="0 0 99 55" version="1.1">
<g id="surface1">
<path style="fill-rule:nonzero;fill:rgb(88.627452%,86.666667%,79.215688%);fill-opacity:1;stroke-width:20;stroke-linecap:butt;stroke-linejoin:miter;stroke:rgb(12.54902%,11.764706%,11.764706%);stroke-opacity:1;stroke-miterlimit:22.926;" d="M 40357.3801 5104.447699 L 41376.109273 5104.447699 L 41386.96782 2091.106833 L 42606.086549 2091.106833 C 42702.826335 2621.733695 42726.517711 4263.965735 42732.440555 5104.447699 L 43719.581226 5104.447699 C 43814.346731 1383.281585 43524.127373 -718.891622 42723.556289 -2184.893572 L 40264.588877 -2184.893572 Z M 41337.610786 1189.622146 L 41350.443615 -1286.313777 L 41964.445113 -1286.313777 C 42243.805923 -734.384377 42423.465525 -6.224888 42562.652359 1189.622146 Z M 35795.803058 5106.384293 L 36861.914983 5106.384293 L 36837.236466 2082.392158 L 37730.598774 2082.392158 L 37730.598774 1139.270692 L 36837.236466 1139.270692 L 36840.197888 -1231.120837 L 38007.985302 -1231.120837 L 38001.075318 -2184.893572 L 35577.64497 -2184.893572 L 35577.64497 5106.384293 Z M 35795.803058 5106.384293 " transform="matrix(0.00395714,0,0,0.00403414,-86.215271,21.821987)"/>
<path style="fill-rule:evenodd;fill:rgb(88.627452%,86.666667%,79.215688%);fill-opacity:1;stroke-width:20;stroke-linecap:butt;stroke-linejoin:miter;stroke:rgb(12.54902%,11.764706%,11.764706%);stroke-opacity:1;stroke-miterlimit:22.926;" d="M 38421.597244 -2184.893572 L 39657.497364 -2184.893572 L 39657.497364 5106.384293 L 38421.597244 5106.384293 Z M 44423.412525 -2184.893572 L 46573.404907 -2184.893572 L 46573.404907 -1265.979536 L 45658.325504 -1265.979536 L 45658.325504 5106.384293 L 44423.412525 5106.384293 L 44423.412525 -1265.979536 L 43580.394391 -1265.979536 L 43580.394391 -2184.893572 Z M 44423.412525 -2184.893572 " transform="matrix(0.00395714,0,0,0.00403414,-86.215271,21.821987)"/>
<path style=" stroke:none;fill-rule:evenodd;fill:rgb(14.901961%,56.470591%,32.156864%);fill-opacity:1;" d="M 9.324219 12.441406 L 13.996094 12.441406 L 5.558594 42.609375 L 0.882812 42.609375 Z M 9.324219 12.441406 "/>
<path style=" stroke:none;fill-rule:evenodd;fill:rgb(88.627452%,86.666667%,79.215688%);fill-opacity:1;" d="M 19.023438 12.441406 L 23.699219 12.441406 L 15.261719 42.609375 L 10.585938 42.609375 Z M 28.589844 12.441406 L 33.265625 12.441406 L 24.824219 42.609375 L 20.152344 42.609375 Z M 28.589844 12.441406 "/>
<path style=" stroke:none;fill-rule:evenodd;fill:rgb(99.607843%,7.843138%,18.431373%);fill-opacity:1;" d="M 38.292969 12.441406 L 42.96875 12.441406 L 34.527344 42.609375 L 29.851562 42.609375 Z M 38.292969 12.441406 "/>
</g>
</svg>
