<?xml version="1.0" encoding="UTF-8"?>
<svg xmlns="http://www.w3.org/2000/svg" xmlns:xlink="http://www.w3.org/1999/xlink" width="100px" height="68px" viewBox="0 0 99 68" version="1.1">
<g id="surface1">
<path style=" stroke:none;fill-rule:nonzero;fill:rgb(100%,7.843138%,18.82353%);fill-opacity:1;" d="M 64.3125 0.0507812 L 44.207031 0.0507812 L 44.207031 67.828125 L 53.382812 67.828125 L 53.382812 37.21875 L 63.492188 37.21875 C 64.394531 42.820312 64.472656 66.023438 64.472656 67.828125 L 73.785156 67.828125 C 74.074219 50.625 73.917969 18.554688 64.3125 0.0507812 M 53.25 29.332031 L 53.25 7.777344 L 58.160156 7.777344 C 59.964844 11.574219 61.15625 17.070312 61.898438 21.15625 C 62.667969 25.589844 63.09375 29.332031 63.09375 29.332031 Z M 53.25 29.332031 "/>
<path style=" stroke:none;fill-rule:nonzero;fill:rgb(100%,7.843138%,18.82353%);fill-opacity:1;" d="M 26.273438 0.0507812 L 36.355469 0.0507812 L 36.355469 67.882812 L 26.273438 67.882812 Z M 26.273438 0.0507812 "/>
<path style=" stroke:none;fill-rule:nonzero;fill:rgb(100%,7.843138%,18.82353%);fill-opacity:1;" d="M 0.4375 0.0507812 L 0.4375 67.882812 L 10.515625 67.882812 L 10.515625 37.164062 L 17.890625 37.164062 L 17.890625 29.308594 L 10.515625 29.308594 L 10.515625 7.855469 L 19.988281 7.855469 L 19.988281 0.0234375 L 0.4375 0.0234375 Z M 0.4375 0.0507812 "/>
<path style=" stroke:none;fill-rule:nonzero;fill:rgb(100%,7.843138%,18.82353%);fill-opacity:1;" d="M 74.101562 0.0507812 L 74.101562 7.882812 L 81.316406 7.882812 L 81.371094 67.855469 L 91.292969 67.855469 L 91.292969 7.855469 L 98.558594 7.855469 L 98.558594 0.0234375 L 74.101562 0.0234375 Z M 74.101562 0.0507812 "/>
</g>
</svg>
